<?xml version="1.0" encoding="iso-8859-1"?>
<!-- Uploaded to: SVG Repo, www.svgrepo.com, Generator: SVG Repo Mixer Tools -->
<!DOCTYPE svg PUBLIC "-//W3C//DTD SVG 1.1//EN" "http://www.w3.org/Graphics/SVG/1.1/DTD/svg11.dtd">
<svg fill="#000000" version="1.1" id="Capa_1" xmlns="http://www.w3.org/2000/svg" xmlns:xlink="http://www.w3.org/1999/xlink" 
	 width="800px" height="800px" viewBox="0 0 167.548 167.548"
	 xml:space="preserve">
<g>
	<path d="M166.472,46.925c-0.943-0.707-2.23-0.718-3.185-0.037l-43.459,30.963c-1.018,0.72-1.402,2.025-0.954,3.175
		c0.416,1.07,0.622,2.146,0.622,3.206c0,4.841-3.934,8.775-8.775,8.775c-4.835,0-8.774-3.935-8.774-8.775
		c0-4.63,3.649-8.459,8.3-8.712c0.896-0.05,1.714-0.54,2.173-1.308c0.459-0.778,0.507-1.722,0.116-2.544L86.207,16.162
		c-0.896-1.896-3.986-1.896-4.883,0l-26.346,55.55c-0.372,0.794-0.34,1.728,0.103,2.5c0.438,0.772,1.226,1.263,2.106,1.35
		c4.557,0.398,7.987,4.135,7.987,8.67c0,4.841-3.937,8.775-8.775,8.775s-8.775-3.935-8.775-8.775c0-0.859,0.166-1.782,0.511-2.811
		c0.372-1.118-0.01-2.35-0.959-3.035L4.298,46.909c-0.955-0.696-2.257-0.702-3.201,0.005c-0.949,0.709-1.334,1.94-0.949,3.059
		l30.958,89.145c0.021,0.058,0.079,0.085,0.103,0.132c0.949,10.684,34.607,13.559,52.563,13.559
		c17.948,0,51.613-2.864,52.552-13.559c0.021-0.053,0.085-0.09,0.105-0.132l30.955-89.145
		C167.796,48.86,167.41,47.634,166.472,46.925z M69.251,66.853l12.089-25.5c0.648-1.35,2.281-1.912,3.597-1.284
		c1.351,0.641,1.922,2.251,1.287,3.596L74.936,67.446c4.169,4.58,6.449,10.465,6.449,16.774c0,1.487-1.21,2.7-2.7,2.7
		c-1.493,0-2.7-1.213-2.7-2.7c0-5.495-2.183-10.549-6.146-14.259C68.998,69.179,68.752,67.91,69.251,66.853z M83.792,147.407
		c-29.613,0-46.751-5.69-47.255-8.602c0.469-2.921,17.582-8.632,47.255-8.632c29.677,0,46.778,5.711,47.248,8.611
		C130.539,141.717,113.4,147.407,83.792,147.407z"/>
</g>
</svg>